<svg xmlns="http://www.w3.org/2000/svg" viewBox="0 0 64 64">
  <defs>
    <linearGradient id="case" x1="12" y1="6" x2="52" y2="58" gradientUnits="userSpaceOnUse">
      <stop offset="0" stop-color="#b9d9e8"/>
      <stop offset="1" stop-color="#4f7f9b"/>
    </linearGradient>
    <linearGradient id="gold" x1="16" y1="8" x2="48" y2="56" gradientUnits="userSpaceOnUse">
      <stop offset="0" stop-color="#f5ead0"/>
      <stop offset="0.5" stop-color="#c59a3a"/>
      <stop offset="1" stop-color="#8a6725"/>
    </linearGradient>
  </defs>
  <rect width="64" height="64" rx="14" fill="#eef7fb"/>
  <rect x="9" y="10" width="46" height="46" rx="10" fill="url(#case)" stroke="url(#gold)" stroke-width="4"/>
  <rect x="14" y="18" width="36" height="22" rx="5" fill="#fffdf6" stroke="#c59a3a" stroke-width="3"/>
  <path d="M53 24h4c2 0 3 1 3 3v8c0 2-1 3-3 3h-4" fill="none" stroke="#8a6725" stroke-width="4" stroke-linecap="round"/>
  <circle cx="57" cy="20" r="5" fill="#ead8a2" stroke="#f5ead0" stroke-width="2"/>
  <line x1="26" y1="19" x2="26" y2="39" stroke="#e5f1f6" stroke-width="2"/>
  <line x1="38" y1="19" x2="38" y2="39" stroke="#e5f1f6" stroke-width="2"/>
  <text x="20" y="34" font-family="Arial, sans-serif" font-size="13" font-weight="700" fill="#9b7730">7</text>
  <text x="32" y="34" font-family="Arial, sans-serif" font-size="13" font-weight="700" fill="#9b7730" text-anchor="middle">7</text>
  <text x="44" y="34" font-family="Arial, sans-serif" font-size="13" font-weight="700" fill="#9b7730" text-anchor="middle">7</text>
  <circle cx="18" cy="48" r="2" fill="#f5ead0"/>
  <circle cx="26" cy="48" r="2" fill="#f5ead0"/>
  <circle cx="34" cy="48" r="2" fill="#f5ead0"/>
  <circle cx="42" cy="48" r="2" fill="#f5ead0"/>
</svg>
